<svg id="SvgjsSvg1184" width="699.5" height="857" xmlns="http://www.w3.org/2000/svg" version="1.1" xmlns:xlink="http://www.w3.org/1999/xlink" xmlns:svgjs="http://svgjs.com/svgjs"><defs id="SvgjsDefs1185"><marker id="SvgjsMarker1194" markerWidth="16" markerHeight="12" refX="16" refY="6" viewBox="0 0 16 12" orient="auto" markerUnits="userSpaceOnUse" stroke-dasharray="0,0"><path id="SvgjsPath1195" d="M0,2 L14,6 L0,11 L0,2" fill="#323232" stroke="#323232" stroke-width="2"></path></marker><marker id="SvgjsMarker1210" markerWidth="16" markerHeight="12" refX="16" refY="6" viewBox="0 0 16 12" orient="auto" markerUnits="userSpaceOnUse" stroke-dasharray="0,0"><path id="SvgjsPath1211" d="M0,2 L14,6 L0,11 L0,2" fill="#323232" stroke="#323232" stroke-width="2"></path></marker><marker id="SvgjsMarker1218" markerWidth="16" markerHeight="12" refX="16" refY="6" viewBox="0 0 16 12" orient="auto" markerUnits="userSpaceOnUse" stroke-dasharray="0,0"><path id="SvgjsPath1219" d="M0,2 L14,6 L0,11 L0,2" fill="#323232" stroke="#323232" stroke-width="2"></path></marker><marker id="SvgjsMarker1232" markerWidth="16" markerHeight="12" refX="16" refY="6" viewBox="0 0 16 12" orient="auto" markerUnits="userSpaceOnUse" stroke-dasharray="0,0"><path id="SvgjsPath1233" d="M0,2 L14,6 L0,11 L0,2" fill="#323232" stroke="#323232" stroke-width="2"></path></marker><marker id="SvgjsMarker1246" markerWidth="16" markerHeight="12" refX="16" refY="6" viewBox="0 0 16 12" orient="auto" markerUnits="userSpaceOnUse" stroke-dasharray="0,0"><path id="SvgjsPath1247" d="M0,2 L14,6 L0,11 L0,2" fill="#323232" stroke="#323232" stroke-width="2"></path></marker><marker id="SvgjsMarker1254" markerWidth="16" markerHeight="12" refX="16" refY="6" viewBox="0 0 16 12" orient="auto" markerUnits="userSpaceOnUse" stroke-dasharray="0,0"><path id="SvgjsPath1255" d="M0,2 L14,6 L0,11 L0,2" fill="#323232" stroke="#323232" stroke-width="2"></path></marker><marker id="SvgjsMarker1268" markerWidth="16" markerHeight="12" refX="16" refY="6" viewBox="0 0 16 12" orient="auto" markerUnits="userSpaceOnUse" stroke-dasharray="0,0"><path id="SvgjsPath1269" d="M0,2 L14,6 L0,11 L0,2" fill="#323232" stroke="#323232" stroke-width="2"></path></marker><marker id="SvgjsMarker1294" markerWidth="16" markerHeight="12" refX="16" refY="6" viewBox="0 0 16 12" orient="auto" markerUnits="userSpaceOnUse" stroke-dasharray="0,0"><path id="SvgjsPath1295" d="M0,2 L14,6 L0,11 L0,2" fill="#323232" stroke="#323232" stroke-width="2"></path></marker><marker id="SvgjsMarker1310" markerWidth="16" markerHeight="12" refX="16" refY="6" viewBox="0 0 16 12" orient="auto" markerUnits="userSpaceOnUse" stroke-dasharray="0,0"><path id="SvgjsPath1311" d="M0,2 L14,6 L0,11 L0,2" fill="#323232" stroke="#323232" stroke-width="2"></path></marker><marker id="SvgjsMarker1318" markerWidth="16" markerHeight="12" refX="16" refY="6" viewBox="0 0 16 12" orient="auto" markerUnits="userSpaceOnUse" stroke-dasharray="0,0"><path id="SvgjsPath1319" d="M0,2 L14,6 L0,11 L0,2" fill="#323232" stroke="#323232" stroke-width="2"></path></marker><marker id="SvgjsMarker1332" markerWidth="16" markerHeight="12" refX="16" refY="6" viewBox="0 0 16 12" orient="auto" markerUnits="userSpaceOnUse" stroke-dasharray="0,0"><path id="SvgjsPath1333" d="M0,2 L14,6 L0,11 L0,2" fill="#323232" stroke="#323232" stroke-width="2"></path></marker><marker id="SvgjsMarker1342" markerWidth="16" markerHeight="12" refX="16" refY="6" viewBox="0 0 16 12" orient="auto" markerUnits="userSpaceOnUse" stroke-dasharray="0,0"><path id="SvgjsPath1343" d="M0,2 L14,6 L0,11 L0,2" fill="#323232" stroke="#323232" stroke-width="2"></path></marker><marker id="SvgjsMarker1356" markerWidth="16" markerHeight="12" refX="16" refY="6" viewBox="0 0 16 12" orient="auto" markerUnits="userSpaceOnUse" stroke-dasharray="0,0"><path id="SvgjsPath1357" d="M0,2 L14,6 L0,11 L0,2" fill="#323232" stroke="#323232" stroke-width="2"></path></marker></defs><g id="SvgjsG1186" transform="translate(147.5,133)"><path id="SvgjsPath1187" d="M 0 4Q 0 0 4 0L 96 0Q 100 0 100 4L 100 66Q 100 70 96 70L 4 70Q 0 70 0 66Z" stroke="rgba(50,50,50,1)" stroke-width="2" fill-opacity="1" fill="#ffffff"></path><g id="SvgjsG1188"><text id="SvgjsText1189" font-family="微软雅黑" text-anchor="middle" font-size="13px" width="80px" fill="#323232" font-weight="400" align="middle" anchor="middle" family="微软雅黑" size="13px" weight="400" font-style="" opacity="1" y="25.05" transform="rotate(0)"><tspan id="SvgjsTspan1190" dy="16" x="50"><tspan id="SvgjsTspan1191" style="text-decoration:;">CNT</tspan></tspan></text></g></g><g id="SvgjsG1192"><path id="SvgjsPath1193" d="M247.5 168L326.5 168L326.5 168L405.5 168" stroke="#323232" stroke-width="2" fill="none" marker-end="url(#SvgjsMarker1194)"></path><rect id="SvgjsRect1196" width="92" height="32" x="280.5" y="152" fill="#ffffff"></rect><text id="SvgjsText1197" font-family="微软雅黑" text-anchor="middle" font-size="13px" width="92px" fill="#323232" font-weight="400" align="top" anchor="middle" family="微软雅黑" size="13px" weight="400" font-style="" opacity="1" y="150.05" transform="rotate(0)"><tspan id="SvgjsTspan1198" dy="16" x="326.5"><tspan id="SvgjsTspan1199" style="text-decoration:;">IF Enable = 1 </tspan></tspan><tspan id="SvgjsTspan1200" dy="16" x="326.5"><tspan id="SvgjsTspan1201" style="text-decoration:;">and COUNT=0</tspan></tspan></text></g><g id="SvgjsG1202" transform="translate(405.5,133)"><path id="SvgjsPath1203" d="M 0 4Q 0 0 4 0L 96 0Q 100 0 100 4L 100 66Q 100 70 96 70L 4 70Q 0 70 0 66Z" stroke="rgba(50,50,50,1)" stroke-width="2" fill-opacity="1" fill="#ffffff"></path><g id="SvgjsG1204"><text id="SvgjsText1205" font-family="微软雅黑" text-anchor="middle" font-size="13px" width="80px" fill="#323232" font-weight="400" align="middle" anchor="middle" family="微软雅黑" size="13px" weight="400" font-style="" opacity="1" y="25.05" transform="rotate(0)"><tspan id="SvgjsTspan1206" dy="16" x="50"><tspan id="SvgjsTspan1207" style="text-decoration:;">INT</tspan></tspan></text></g></g><g id="SvgjsG1208"><path id="SvgjsPath1209" d="M147.5 168L117.5 168L117.5 103L197.5 103L197.5 133" stroke="#323232" stroke-width="2" fill="none" marker-end="url(#SvgjsMarker1210)"></path><rect id="SvgjsRect1212" width="220" height="16" x="15" y="95" fill="#ffffff"></rect><text id="SvgjsText1213" font-family="微软雅黑" text-anchor="middle" font-size="13px" width="220px" fill="#323232" font-weight="400" align="top" anchor="middle" family="微软雅黑" size="13px" weight="400" font-style="" opacity="1" y="93.05" transform="rotate(0)"><tspan id="SvgjsTspan1214" dy="16" x="125"><tspan id="SvgjsTspan1215" style="text-decoration:;">IF Enbale = 1,  COUNT = COUNT - 1</tspan></tspan></text></g><g id="SvgjsG1216"><path id="SvgjsPath1217" d="M505.5 168L553 168L553 171L600.5 171" stroke="#323232" stroke-width="2" fill="none" marker-end="url(#SvgjsMarker1218)"></path><rect id="SvgjsRect1220" width="48" height="16" x="529" y="161.5" fill="#ffffff"></rect><text id="SvgjsText1221" font-family="微软雅黑" text-anchor="middle" font-size="13px" width="48px" fill="#323232" font-weight="400" align="top" anchor="middle" family="微软雅黑" size="13px" weight="400" font-style="" opacity="1" y="159.55" transform="rotate(0)"><tspan id="SvgjsTspan1222" dy="16" x="553"><tspan id="SvgjsTspan1223" style="text-decoration:;">IF IM=1</tspan></tspan></text></g><g id="SvgjsG1224" transform="translate(600.5,136)"><path id="SvgjsPath1225" d="M 0 35C 0 -11.666666666666666 70 -11.666666666666666 70 35C 70 81.66666666666667 0 81.66666666666667 0 35Z" stroke="rgba(50,50,50,1)" stroke-width="2" fill-opacity="1" fill="#ffffff"></path><g id="SvgjsG1226"><text id="SvgjsText1227" font-family="微软雅黑" text-anchor="middle" font-size="13px" width="50px" fill="#323232" font-weight="400" align="middle" anchor="middle" family="微软雅黑" size="13px" weight="400" font-style="" opacity="1" y="25.05" transform="rotate(0)"><tspan id="SvgjsTspan1228" dy="16" x="35"><tspan id="SvgjsTspan1229" style="text-decoration:;">IRQ</tspan></tspan></text></g></g><g id="SvgjsG1230"><path id="SvgjsPath1231" d="M455.5 203L455.5 239.5L455.5 239.5L455.5 276" stroke="#323232" stroke-width="2" fill="none" marker-end="url(#SvgjsMarker1232)"></path><rect id="SvgjsRect1234" width="66" height="16" x="422.5" y="224" fill="#ffffff"></rect><text id="SvgjsText1235" font-family="微软雅黑" text-anchor="middle" font-size="13px" width="66px" fill="#323232" font-weight="400" align="top" anchor="middle" family="微软雅黑" size="13px" weight="400" font-style="" opacity="1" y="222.05" transform="rotate(0)"><tspan id="SvgjsTspan1236" dy="16" x="455.5"><tspan id="SvgjsTspan1237" style="text-decoration:;">Enable = 0</tspan></tspan></text></g><g id="SvgjsG1238" transform="translate(405.5,276)"><path id="SvgjsPath1239" d="M 0 4Q 0 0 4 0L 96 0Q 100 0 100 4L 100 66Q 100 70 96 70L 4 70Q 0 70 0 66Z" stroke="rgba(50,50,50,1)" stroke-width="2" fill-opacity="1" fill="#ffffff"></path><g id="SvgjsG1240"><text id="SvgjsText1241" font-family="微软雅黑" text-anchor="middle" font-size="13px" width="80px" fill="#323232" font-weight="400" align="middle" anchor="middle" family="微软雅黑" size="13px" weight="400" font-style="" opacity="1" y="25.05" transform="rotate(0)"><tspan id="SvgjsTspan1242" dy="16" x="50"><tspan id="SvgjsTspan1243" style="text-decoration:;">IDLE</tspan></tspan></text></g></g><g id="SvgjsG1244"><path id="SvgjsPath1245" d="M505.5 311L635.5 311L635.5 206" stroke="#323232" stroke-width="2" fill="none" marker-end="url(#SvgjsMarker1246)"></path><rect id="SvgjsRect1248" width="48" height="16" x="599" y="303" fill="#ffffff"></rect><text id="SvgjsText1249" font-family="微软雅黑" text-anchor="middle" font-size="13px" width="48px" fill="#323232" font-weight="400" align="top" anchor="middle" family="微软雅黑" size="13px" weight="400" font-style="" opacity="1" y="301.05" transform="rotate(0)"><tspan id="SvgjsTspan1250" dy="16" x="623"><tspan id="SvgjsTspan1251" style="text-decoration:;">IF IM=1</tspan></tspan></text></g><g id="SvgjsG1252"><path id="SvgjsPath1253" d="M405.5 311L326.5 311L326.5 311L247.5 311" stroke="#323232" stroke-width="2" fill="none" marker-end="url(#SvgjsMarker1254)"></path><rect id="SvgjsRect1256" width="81" height="16" x="286" y="303" fill="#ffffff"></rect><text id="SvgjsText1257" font-family="微软雅黑" text-anchor="middle" font-size="13px" width="81px" fill="#323232" font-weight="400" align="top" anchor="middle" family="微软雅黑" size="13px" weight="400" font-style="" opacity="1" y="301.05" transform="rotate(0)"><tspan id="SvgjsTspan1258" dy="16" x="326.5"><tspan id="SvgjsTspan1259" style="text-decoration:;">IF Enable = 1</tspan></tspan></text></g><g id="SvgjsG1260" transform="translate(147.5,276)"><path id="SvgjsPath1261" d="M 0 4Q 0 0 4 0L 96 0Q 100 0 100 4L 100 66Q 100 70 96 70L 4 70Q 0 70 0 66Z" stroke="rgba(50,50,50,1)" stroke-width="2" fill-opacity="1" fill="#ffffff"></path><g id="SvgjsG1262"><text id="SvgjsText1263" font-family="微软雅黑" text-anchor="middle" font-size="13px" width="80px" fill="#323232" font-weight="400" align="middle" anchor="middle" family="微软雅黑" size="13px" weight="400" font-style="" opacity="1" y="25.05" transform="rotate(0)"><tspan id="SvgjsTspan1264" dy="16" x="50"><tspan id="SvgjsTspan1265" style="text-decoration:;">LOAD</tspan></tspan></text></g></g><g id="SvgjsG1266"><path id="SvgjsPath1267" d="M197.5 276L197.5 239.5L197.5 239.5L197.5 203" stroke="#323232" stroke-width="2" fill="none" marker-end="url(#SvgjsMarker1268)"></path><rect id="SvgjsRect1270" width="110" height="16" x="142.5" y="231.5" fill="#ffffff"></rect><text id="SvgjsText1271" font-family="微软雅黑" text-anchor="middle" font-size="13px" width="110px" fill="#323232" font-weight="400" align="top" anchor="middle" family="微软雅黑" size="13px" weight="400" font-style="" opacity="1" y="229.55" transform="rotate(0)"><tspan id="SvgjsTspan1272" dy="16" x="197.5"><tspan id="SvgjsTspan1273" style="text-decoration:;">COUNT = PRESET</tspan></tspan></text></g><g id="SvgjsG1274" transform="translate(319.5,25)"><path id="SvgjsPath1275" d="M 0 0L 157 0L 157 51L 0 51Z" stroke="none" fill="none"></path><g id="SvgjsG1276"><text id="SvgjsText1277" font-family="微软雅黑" text-anchor="middle" font-size="21px" width="157px" fill="#323232" font-weight="700" align="middle" anchor="middle" family="微软雅黑" size="21px" weight="700" font-style="" opacity="1" y="7.35" transform="rotate(0)"><tspan id="SvgjsTspan1278" dy="26" x="78.5"><tspan id="SvgjsTspan1279" style="text-decoration:;">Mode = 0</tspan></tspan></text></g></g><g id="SvgjsG1280" transform="translate(319.5,519)"><path id="SvgjsPath1281" d="M 0 0L 157 0L 157 51L 0 51Z" stroke="none" fill="none"></path><g id="SvgjsG1282"><text id="SvgjsText1283" font-family="微软雅黑" text-anchor="middle" font-size="21px" width="157px" fill="#323232" font-weight="700" align="middle" anchor="middle" family="微软雅黑" size="21px" weight="700" font-style="" opacity="1" y="7.35" transform="rotate(0)"><tspan id="SvgjsTspan1284" dy="26" x="78.5"><tspan id="SvgjsTspan1285" style="text-decoration:;">Mode = 1</tspan></tspan></text></g></g><g id="SvgjsG1286" transform="translate(151.5,619)"><path id="SvgjsPath1287" d="M 0 4Q 0 0 4 0L 96 0Q 100 0 100 4L 100 66Q 100 70 96 70L 4 70Q 0 70 0 66Z" stroke="rgba(50,50,50,1)" stroke-width="2" fill-opacity="1" fill="#ffffff"></path><g id="SvgjsG1288"><text id="SvgjsText1289" font-family="微软雅黑" text-anchor="middle" font-size="13px" width="80px" fill="#323232" font-weight="400" align="middle" anchor="middle" family="微软雅黑" size="13px" weight="400" font-style="" opacity="1" y="25.05" transform="rotate(0)"><tspan id="SvgjsTspan1290" dy="16" x="50"><tspan id="SvgjsTspan1291" style="text-decoration:;">CNT</tspan></tspan></text></g></g><g id="SvgjsG1292"><path id="SvgjsPath1293" d="M251.5 654L330.5 654L330.5 654L409.5 654" stroke="#323232" stroke-width="2" fill="none" marker-end="url(#SvgjsMarker1294)"></path><rect id="SvgjsRect1296" width="92" height="32" x="284.5" y="638" fill="#ffffff"></rect><text id="SvgjsText1297" font-family="微软雅黑" text-anchor="middle" font-size="13px" width="92px" fill="#323232" font-weight="400" align="top" anchor="middle" family="微软雅黑" size="13px" weight="400" font-style="" opacity="1" y="636.05" transform="rotate(0)"><tspan id="SvgjsTspan1298" dy="16" x="330.5"><tspan id="SvgjsTspan1299" style="text-decoration:;">IF Enable = 1 </tspan></tspan><tspan id="SvgjsTspan1300" dy="16" x="330.5"><tspan id="SvgjsTspan1301" style="text-decoration:;">and COUNT=0</tspan></tspan></text></g><g id="SvgjsG1302" transform="translate(409.5,619)"><path id="SvgjsPath1303" d="M 0 4Q 0 0 4 0L 96 0Q 100 0 100 4L 100 66Q 100 70 96 70L 4 70Q 0 70 0 66Z" stroke="rgba(50,50,50,1)" stroke-width="2" fill-opacity="1" fill="#ffffff"></path><g id="SvgjsG1304"><text id="SvgjsText1305" font-family="微软雅黑" text-anchor="middle" font-size="13px" width="80px" fill="#323232" font-weight="400" align="middle" anchor="middle" family="微软雅黑" size="13px" weight="400" font-style="" opacity="1" y="25.05" transform="rotate(0)"><tspan id="SvgjsTspan1306" dy="16" x="50"><tspan id="SvgjsTspan1307" style="text-decoration:;">INT</tspan></tspan></text></g></g><g id="SvgjsG1308"><path id="SvgjsPath1309" d="M151.5 654L121.5 654L121.5 589L201.5 589L201.5 619" stroke="#323232" stroke-width="2" fill="none" marker-end="url(#SvgjsMarker1310)"></path><rect id="SvgjsRect1312" width="220" height="16" x="19" y="581" fill="#ffffff"></rect><text id="SvgjsText1313" font-family="微软雅黑" text-anchor="middle" font-size="13px" width="220px" fill="#323232" font-weight="400" align="top" anchor="middle" family="微软雅黑" size="13px" weight="400" font-style="" opacity="1" y="579.05" transform="rotate(0)"><tspan id="SvgjsTspan1314" dy="16" x="129"><tspan id="SvgjsTspan1315" style="text-decoration:;">IF Enbale = 1,  COUNT = COUNT - 1</tspan></tspan></text></g><g id="SvgjsG1316"><path id="SvgjsPath1317" d="M509.5 654L557 654L557 657L604.5 657" stroke="#323232" stroke-width="2" fill="none" marker-end="url(#SvgjsMarker1318)"></path><rect id="SvgjsRect1320" width="48" height="16" x="533" y="647.5" fill="#ffffff"></rect><text id="SvgjsText1321" font-family="微软雅黑" text-anchor="middle" font-size="13px" width="48px" fill="#323232" font-weight="400" align="top" anchor="middle" family="微软雅黑" size="13px" weight="400" font-style="" opacity="1" y="645.55" transform="rotate(0)"><tspan id="SvgjsTspan1322" dy="16" x="557"><tspan id="SvgjsTspan1323" style="text-decoration:;">IF IM=1</tspan></tspan></text></g><g id="SvgjsG1324" transform="translate(604.5,622)"><path id="SvgjsPath1325" d="M 0 35C 0 -11.666666666666666 70 -11.666666666666666 70 35C 70 81.66666666666667 0 81.66666666666667 0 35Z" stroke="rgba(50,50,50,1)" stroke-width="2" fill-opacity="1" fill="#ffffff"></path><g id="SvgjsG1326"><text id="SvgjsText1327" font-family="微软雅黑" text-anchor="middle" font-size="13px" width="50px" fill="#323232" font-weight="400" align="middle" anchor="middle" family="微软雅黑" size="13px" weight="400" font-style="" opacity="1" y="25.05" transform="rotate(0)"><tspan id="SvgjsTspan1328" dy="16" x="35"><tspan id="SvgjsTspan1329" style="text-decoration:;">IRQ</tspan></tspan></text></g></g><g id="SvgjsG1330"><path id="SvgjsPath1331" d="M459.5 689L459.5 725.5L459.5 725.5L459.5 762" stroke="#323232" stroke-width="2" fill="none" marker-end="url(#SvgjsMarker1332)"></path></g><g id="SvgjsG1334" transform="translate(409.5,762)"><path id="SvgjsPath1335" d="M 0 4Q 0 0 4 0L 96 0Q 100 0 100 4L 100 66Q 100 70 96 70L 4 70Q 0 70 0 66Z" stroke="rgba(50,50,50,1)" stroke-width="2" fill-opacity="1" fill="#ffffff"></path><g id="SvgjsG1336"><text id="SvgjsText1337" font-family="微软雅黑" text-anchor="middle" font-size="13px" width="80px" fill="#323232" font-weight="400" align="middle" anchor="middle" family="微软雅黑" size="13px" weight="400" font-style="" opacity="1" y="25.05" transform="rotate(0)"><tspan id="SvgjsTspan1338" dy="16" x="50"><tspan id="SvgjsTspan1339" style="text-decoration:;">IDLE</tspan></tspan></text></g></g><g id="SvgjsG1340"><path id="SvgjsPath1341" d="M409.5 797L330.5 797L330.5 797L251.5 797" stroke="#323232" stroke-width="2" fill="none" marker-end="url(#SvgjsMarker1342)"></path><rect id="SvgjsRect1344" width="81" height="16" x="290" y="789" fill="#ffffff"></rect><text id="SvgjsText1345" font-family="微软雅黑" text-anchor="middle" font-size="13px" width="81px" fill="#323232" font-weight="400" align="top" anchor="middle" family="微软雅黑" size="13px" weight="400" font-style="" opacity="1" y="787.05" transform="rotate(0)"><tspan id="SvgjsTspan1346" dy="16" x="330.5"><tspan id="SvgjsTspan1347" style="text-decoration:;">IF Enable = 1</tspan></tspan></text></g><g id="SvgjsG1348" transform="translate(151.5,762)"><path id="SvgjsPath1349" d="M 0 4Q 0 0 4 0L 96 0Q 100 0 100 4L 100 66Q 100 70 96 70L 4 70Q 0 70 0 66Z" stroke="rgba(50,50,50,1)" stroke-width="2" fill-opacity="1" fill="#ffffff"></path><g id="SvgjsG1350"><text id="SvgjsText1351" font-family="微软雅黑" text-anchor="middle" font-size="13px" width="80px" fill="#323232" font-weight="400" align="middle" anchor="middle" family="微软雅黑" size="13px" weight="400" font-style="" opacity="1" y="25.05" transform="rotate(0)"><tspan id="SvgjsTspan1352" dy="16" x="50"><tspan id="SvgjsTspan1353" style="text-decoration:;">LOAD</tspan></tspan></text></g></g><g id="SvgjsG1354"><path id="SvgjsPath1355" d="M201.5 762L201.5 725.5L201.5 725.5L201.5 689" stroke="#323232" stroke-width="2" fill="none" marker-end="url(#SvgjsMarker1356)"></path><rect id="SvgjsRect1358" width="110" height="16" x="146.5" y="717.5" fill="#ffffff"></rect><text id="SvgjsText1359" font-family="微软雅黑" text-anchor="middle" font-size="13px" width="110px" fill="#323232" font-weight="400" align="top" anchor="middle" family="微软雅黑" size="13px" weight="400" font-style="" opacity="1" y="715.55" transform="rotate(0)"><tspan id="SvgjsTspan1360" dy="16" x="201.5"><tspan id="SvgjsTspan1361" style="text-decoration:;">COUNT = PRESET</tspan></tspan></text></g></svg>